# xmcd
#
# Track frame offsets: 
#        150
#        22152
#        46855
#        68500
#        89900
#        117740
#        148450
#        171475
#        189590
#
# Disc length: 2902 seconds
#
# Revision: 3
# Processed by: cddbd v1.4PL0 Copyright (c) Steve Scherf et al.
# Submitted via: ExactAudioCopy v0.90b4
#
DISCID=8f0b5409
DTITLE=George Darko - Highlife In The Air
DYEAR=1994
DGENRE=Highlife/Ghana
TTITLE0=Menewo Mienu Doyi
TTITLE1=Odo Adwendwen
TTITLE2=Highlife In The Air
TTITLE3=Famame
TTITLE4=Bire Bire
TTITLE5=Come To Africa
TTITLE6=Babiara Ndwoe
TTITLE7=Jungle Boy
TTITLE8=Mensei Da
EXTD=
EXTT0=
EXTT1=
EXTT2=
EXTT3=
EXTT4=
EXTT5=
EXTT6=
EXTT7=
EXTT8=
PLAYORDER=
